HIERARCHY
ROOT joint_Root
{
	OFFSET 0.0 0.0 0.0
	CHANNELS 6 Xposition Yposition Zposition Zrotation Xrotation Yrotation 
	JOINT Hips
	{
		OFFSET -17.1583 93.1646 452.98
		CHANNELS 6 Xposition Yposition Zposition Zrotation Xrotation Yrotation 
		JOINT Spine
		{
			OFFSET 15.7357 0.0 0.0
			CHANNELS 6 Xposition Yposition Zposition Zrotation Xrotation Yrotation 
			JOINT Chest
			{
				OFFSET 8.98455 -0.406207 0.0
				CHANNELS 6 Xposition Yposition Zposition Zrotation Xrotation Yrotation 
				JOINT Neck
				{
					OFFSET 16.3773 0.0 0.0
					CHANNELS 6 Xposition Yposition Zposition Zrotation Xrotation Yrotation 
					JOINT Head
					{
						OFFSET 6.45672 0.0 0.0
						CHANNELS 6 Xposition Yposition Zposition Zrotation Xrotation Yrotation 
						End Site
						{
							OFFSET 0.0 0.0 0.0
						}
					}
				}
				JOINT Shoulder_L
				{
					OFFSET 12.9942 -0.242716 4.98039
					CHANNELS 6 Xposition Yposition Zposition Zrotation Xrotation Yrotation 
					JOINT UpperArm_L
					{
						OFFSET 5.34809 0.0 0.0
						CHANNELS 6 Xposition Yposition Zposition Zrotation Xrotation Yrotation 
						JOINT LowerArm_L
						{
							OFFSET 24.3286 1.87007e-05 0.0
							CHANNELS 6 Xposition Yposition Zposition Zrotation Xrotation Yrotation 
							JOINT Hand_L
							{
								OFFSET 22.2916 0.0 0.0
								CHANNELS 6 Xposition Yposition Zposition Zrotation Xrotation Yrotation 
								End Site
								{
									OFFSET 0.0 0.0 0.0
								}
							}
						}
					}
				}
				JOINT Shoulder_R
				{
					OFFSET 12.9945 -0.242716 -4.98039
					CHANNELS 6 Xposition Yposition Zposition Zrotation Xrotation Yrotation 
					JOINT UpperArm_R
					{
						OFFSET -5.34813 0.0 0.0
						CHANNELS 6 Xposition Yposition Zposition Zrotation Xrotation Yrotation 
						JOINT LowerArm_R
						{
							OFFSET -24.3289 0.000322201 0.0
							CHANNELS 6 Xposition Yposition Zposition Zrotation Xrotation Yrotation 
							JOINT Hand_R
							{
								OFFSET -22.2915 -0.000108084 0.0
								CHANNELS 6 Xposition Yposition Zposition Zrotation Xrotation Yrotation 
								End Site
								{
									OFFSET 0.0 0.0 0.0
								}
							}
						}
					}
				}
			}
		}
		JOINT UpperLeg_L
		{
			OFFSET -2.19248 -6.46944 0.0
			CHANNELS 6 Xposition Yposition Zposition Zrotation Xrotation Yrotation 
			JOINT LowerLeg_L
			{
				OFFSET 39.0811 0.0 -1.23785e-05
				CHANNELS 6 Xposition Yposition Zposition Zrotation Xrotation Yrotation 
				JOINT Foot_L
				{
					OFFSET 40.9854 0.0 -1.26872e-05
					CHANNELS 6 Xposition Yposition Zposition Zrotation Xrotation Yrotation 
					JOINT Toes_L
					{
						OFFSET 11.7543 0.0 0.0
						CHANNELS 6 Xposition Yposition Zposition Zrotation Xrotation Yrotation 
						End Site
						{
							OFFSET 0.0 0.0 0.0
						}
					}
				}
			}
		}
		JOINT UpperLeg_R
		{
			OFFSET -2.19251 6.46944 0.0
			CHANNELS 6 Xposition Yposition Zposition Zrotation Xrotation Yrotation 
			JOINT LowerLeg_R
			{
				OFFSET -39.0811 -0.00228153 -0.0401928
				CHANNELS 6 Xposition Yposition Zposition Zrotation Xrotation Yrotation 
				JOINT Foot_R
				{
					OFFSET -40.9854 0.0 0.0
					CHANNELS 6 Xposition Yposition Zposition Zrotation Xrotation Yrotation 
					JOINT Toes_R
					{
						OFFSET -11.7543 0.0 0.0
						CHANNELS 6 Xposition Yposition Zposition Zrotation Xrotation Yrotation 
						End Site
						{
							OFFSET 0.0 0.0 0.0
						}
					}
				}
			}
		}
	}
}
MOTION
Frames:	6
Frame Time:	0.0333333
0.000000 0.000000 0.000000 0.000000 0.000000 -0.000000 -1.864340 93.900900 30.170600 -91.320500 1.976870 164.890000 15.735700 0.000005 -0.000001 128.725000 85.331700 -129.073000 8.984550 -0.406207 -0.000000 -0.462385 5.864540 -0.672427 16.377300 -0.000001 -0.000001 -8.188920 1.380520 0.040867 6.456720 -0.000001 -0.000000 -0.196053 -0.349689 -2.226800 12.994200 -0.242716 4.980390 -91.296100 3.766390 -70.995400 5.348090 -0.000007 -0.000001 -44.139900 -15.187600 29.365600 24.328600 0.000019 0.000005 0.334239 33.015100 -0.613423 22.291600 -0.000001 0.000005 15.355000 3.563960 30.052000 12.994500 -0.242716 -4.980390 90.042400 -0.182771 -76.952900 -5.348130 -0.000001 -0.000004 -64.121200 7.218410 -7.515180 -24.328900 0.000322 -0.000009 -16.545800 -6.415780 -69.385000 -22.291500 -0.000108 -0.000004 6.461810 5.629200 -13.276400 -2.192480 -6.469440 -0.000000 -179.661000 5.896440 -42.590500 39.081100 -0.000007 -0.000012 0.009631 -0.016687 29.989800 40.985400 -0.000006 -0.000013 -6.256630 3.759660 -68.613600 11.754300 -0.000000 0.000003 0.002208 0.055722 -14.316600 -2.192510 6.469440 -0.000001 177.991000 3.974180 -174.800000 -39.081100 -0.002282 -0.040193 0.058580 -0.140341 21.492600 -40.985400 0.000008 0.000006 -4.911460 -4.659410 -28.127000 -11.754300 -0.000006 -0.000006 -0.000238 0.171583 -9.613790
0.000000 0.000000 0.000000 0.000000 0.000000 -0.000000 -1.665260 93.080400 20.606300 -90.307400 1.702840 165.490000 15.735700 0.000005 -0.000001 129.099000 85.145200 -129.206000 8.984550 -0.406207 -0.000000 -0.222236 6.129570 -0.201958 16.377300 -0.000001 -0.000001 -8.634950 1.192210 0.003561 6.456720 -0.000001 -0.000000 -0.287881 -0.537133 -2.050860 12.994200 -0.242716 4.980390 -91.348800 4.040560 -71.522600 5.348090 -0.000007 -0.000001 -44.865000 -16.602500 28.024000 24.328600 0.000019 0.000005 0.584326 31.702800 -1.111810 22.291600 -0.000001 0.000005 27.350700 3.407140 32.119900 12.994500 -0.242716 -4.980390 90.042300 -0.188263 -77.324400 -5.348130 -0.000001 -0.000004 -65.335800 7.276570 -6.505700 -24.328900 0.000322 -0.000009 -15.077300 -6.906440 -65.940800 -22.291500 -0.000108 -0.000004 7.222080 5.628510 -13.225500 -2.192480 -6.469440 -0.000000 -178.190000 5.264090 -37.510000 39.081100 -0.000007 -0.000012 -0.005984 0.021427 15.603700 40.985400 -0.000006 -0.000013 -7.398880 8.262950 -72.855300 11.754300 -0.000000 0.000003 0.002267 0.058879 -14.188600 -2.192510 6.469440 -0.000001 -179.927000 1.301560 -175.763000 -39.081100 -0.002282 -0.040193 0.082069 -0.121419 32.974500 -40.985400 0.000008 0.000006 -6.868910 -4.730760 -30.822600 -11.754300 -0.000006 -0.000006 -0.000050 0.168507 -9.738730
0.000000 0.000000 0.000000 0.000000 0.000000 -0.000000 -1.613350 91.289400 10.893500 -90.617000 0.771750 166.492000 15.735700 0.000005 -0.000001 120.031000 84.960700 -120.311000 8.984550 -0.406207 -0.000000 0.977026 5.058530 -0.603189 16.377300 -0.000001 -0.000001 -9.706580 1.165220 -0.083460 6.456720 -0.000001 -0.000000 -0.978843 -0.220593 -1.100180 12.994200 -0.242716 4.980390 -91.271200 3.973890 -72.245400 5.348090 -0.000007 -0.000001 -47.964600 -19.232200 24.603000 24.328600 0.000019 0.000005 0.903642 30.727100 -1.768140 22.291600 -0.000001 0.000005 34.272700 3.468250 31.356700 12.994500 -0.242716 -4.980390 90.047500 -0.211576 -77.353000 -5.348130 -0.000001 -0.000004 -67.279000 7.802740 -5.081750 -24.328900 0.000322 -0.000009 -13.446500 -7.829370 -60.321800 -22.291500 -0.000108 -0.000004 7.834270 5.630910 -13.405300 -2.192480 -6.469440 -0.000000 -179.174000 4.367110 -35.619300 39.081100 -0.000007 -0.000012 -0.015248 0.057993 14.730500 40.985400 -0.000006 -0.000013 -8.942580 9.931630 -73.852600 11.754300 -0.000000 0.000003 0.002246 0.057700 -14.236400 -2.192510 6.469440 -0.000001 -179.939000 1.765560 -178.429000 -39.081100 -0.002282 -0.040193 0.195358 -0.183375 46.331000 -40.985400 0.000008 0.000006 -9.482250 -3.609970 -31.606100 -11.754300 -0.000006 -0.000006 -0.000046 0.168444 -9.741280
0.000000 0.000000 0.000000 0.000000 0.000000 -0.000000 -1.816030 88.738500 1.958600 -92.759100 -0.676653 165.025000 15.735700 0.000005 -0.000001 107.489000 85.579700 -108.476000 8.984550 -0.406207 -0.000000 0.691391 2.716770 -1.989170 16.377300 -0.000001 -0.000001 -10.131300 1.200280 -0.168850 6.456720 -0.000001 -0.000000 -2.598450 0.241561 -0.240931 12.994200 -0.242716 4.980390 -91.557600 4.949310 -72.506100 5.348090 -0.000007 -0.000001 -51.690700 -19.150200 18.451800 24.328600 0.000019 0.000005 0.744402 26.906300 -1.644070 22.291600 -0.000001 0.000005 30.329100 3.690310 28.412800 12.994500 -0.242716 -4.980390 89.753900 1.024480 -76.505500 -5.348130 -0.000001 -0.000004 -67.614400 9.217560 -3.633490 -24.328900 0.000322 -0.000009 -10.608400 -8.356100 -52.168300 -22.291500 -0.000108 -0.000004 6.579270 5.626800 -13.070200 -2.192480 -6.469440 -0.000000 175.030000 3.438830 -44.551100 39.081100 -0.000007 -0.000012 0.321240 -0.480543 33.762900 40.985400 -0.000006 -0.000013 3.515530 7.125770 -65.475700 11.754300 -0.000000 0.000003 0.002312 0.061571 -14.079400 -2.192510 6.469440 -0.000001 177.678000 5.213520 172.500000 -39.081100 -0.002282 -0.040193 0.410746 -0.209048 62.846200 -40.985400 0.000008 0.000006 -8.049660 -3.816770 -31.728000 -11.754300 -0.000006 -0.000006 0.000151 0.165090 -9.877480
0.000000 0.000000 0.000000 0.000000 0.000000 -0.000000 -2.040850 85.878400 -7.135700 -94.349200 -1.015560 167.065000 15.735700 0.000005 -0.000001 94.352200 84.815600 -95.874300 8.984550 -0.406207 -0.000000 2.586230 0.854938 -3.060470 16.377300 -0.000001 -0.000001 -10.162500 1.204150 -0.392069 6.456720 -0.000001 -0.000000 -3.983240 0.717781 0.576612 12.994200 -0.242716 4.980390 -92.265400 7.359210 -72.836800 5.348090 -0.000007 -0.000001 -53.803500 -17.233300 10.876600 24.328600 0.000019 0.000005 0.912396 22.046100 -2.431790 22.291600 -0.000001 0.000005 15.203500 4.056160 23.203200 12.994500 -0.242716 -4.980390 89.215000 3.237290 -76.362000 -5.348130 -0.000001 -0.000004 -67.321900 7.473710 -1.164270 -24.328900 0.000322 -0.000009 -4.499560 -5.145860 -41.171900 -22.291500 -0.000108 -0.000004 3.067250 5.588730 -10.631400 -2.192480 -6.469440 -0.000000 172.362000 2.247430 -44.592500 39.081100 -0.000007 -0.000012 0.766464 -0.665806 49.022200 40.985400 -0.000006 -0.000013 7.132320 9.610130 -73.461700 11.754300 -0.000000 0.000003 0.000145 0.165151 -9.878510 -2.192510 6.469440 -0.000001 175.183000 6.781900 164.879000 -39.081100 -0.002282 -0.040193 0.657761 -0.126544 79.063400 -40.985400 0.000008 0.000006 -8.733570 -9.903420 -33.676300 -11.754300 -0.000006 -0.000006 0.000431 0.160073 -10.081200
0.000000 0.000000 0.000000 0.000000 0.000000 -0.000000 -2.280030 83.839000 -16.023000 -95.347900 -0.907078 169.151000 15.735700 0.000005 -0.000001 88.196600 83.488000 -90.020300 8.984550 -0.406207 -0.000000 5.248260 -0.368982 -3.626280 16.377300 -0.000001 -0.000001 -11.231700 0.999742 -0.045711 6.456720 -0.000001 -0.000000 -5.154260 1.408690 0.538517 12.994200 -0.242716 4.980390 -92.460300 8.400480 -73.611000 5.348090 -0.000007 -0.000001 -58.124400 -12.406400 2.012660 24.328600 0.000019 0.000005 2.794420 18.990600 -8.531270 22.291600 -0.000001 0.000005 -3.700190 4.641490 13.844300 12.994500 -0.242716 -4.980390 88.842700 4.499570 -75.561000 -5.348130 -0.000001 -0.000004 -67.236000 6.983810 -0.298712 -24.328900 0.000322 -0.000009 -1.665840 -3.188490 -27.531500 -22.291500 -0.000108 -0.000004 4.048350 5.461790 -5.160060 -2.192480 -6.469440 -0.000000 171.278000 3.623900 -39.533300 39.081100 -0.000007 -0.000012 1.051660 -0.690569 56.712700 40.985400 -0.000006 -0.000013 8.320300 7.170770 -83.176000 11.754300 -0.000000 0.000003 -0.000817 0.180393 -9.259350 -2.192510 6.469440 -0.000001 173.936000 7.136510 155.542000 -39.081100 -0.002282 -0.040193 0.620950 0.018067 91.683400 -40.985400 0.000008 0.000006 -5.848290 -14.022600 -35.297400 -11.754300 -0.000006 -0.000006 0.000388 0.160861 -10.049200
